<svg width="533" height="380" viewBox="0 0 533 380" fill="none" xmlns="http://www.w3.org/2000/svg">
<path d="M320.578 379.078C316.256 379.127 311.951 378.549 307.796 377.361C296.835 374.065 287.025 364.878 280.909 352.19C275.429 340.823 273.23 328.306 271.117 316.132C271.094 316.023 271.095 315.911 271.118 315.803C271.141 315.694 271.186 315.592 271.251 315.502C271.315 315.411 271.398 315.335 271.493 315.278C271.588 315.221 271.694 315.185 271.804 315.17C271.911 315.151 272.021 315.152 272.128 315.175C272.234 315.198 272.335 315.242 272.425 315.305C272.514 315.367 272.59 315.446 272.649 315.538C272.708 315.63 272.747 315.733 272.766 315.84C274.862 327.859 277.027 340.256 282.404 351.417C288.331 363.694 297.763 372.536 308.277 375.713C315.922 377.997 324.254 377.43 332.123 376.503C348.976 374.511 359.25 369.291 363.562 360.569C363.717 360.225 363.871 359.916 363.974 359.624C361.277 360.38 358.614 361.341 356.003 362.32C353.838 363.11 351.605 363.917 349.371 364.621C338.501 368.03 326.972 368.784 315.75 366.819C310.338 365.857 307.04 363.247 306.92 359.848C306.799 356.448 309.737 353.735 314.977 352.224C329.334 348.053 344.543 347.775 359.044 351.417C363.167 352.447 365.435 354.164 365.916 356.654C365.967 356.926 366.001 357.201 366.019 357.478C366.671 357.324 367.324 357.186 367.994 357.066C374.969 355.83 382.254 356.534 389.297 357.203C399.296 358.165 408.745 359.075 417.266 354.885C417.467 354.791 417.697 354.779 417.906 354.853C418.115 354.927 418.287 355.081 418.383 355.28C418.433 355.378 418.463 355.485 418.47 355.594C418.478 355.704 418.464 355.814 418.429 355.918C418.394 356.022 418.338 356.118 418.265 356.2C418.193 356.282 418.104 356.349 418.005 356.396C409.054 360.775 398.935 359.83 389.143 358.869C382.271 358.199 375.038 357.512 368.286 358.714C367.462 358.852 366.568 359.041 365.83 359.229C365.628 359.99 365.346 360.726 364.988 361.427C360.418 370.699 349.698 376.211 332.26 378.288C328.385 378.783 324.484 379.047 320.578 379.078V379.078ZM338.496 350.507C330.695 350.509 322.933 351.613 315.441 353.786C313.345 354.387 308.466 356.207 308.569 359.762C308.672 363.316 314.29 364.913 316.008 365.136C326.956 367.089 338.214 366.394 348.839 363.11C351.038 362.423 353.254 361.616 355.384 360.843C358.322 359.762 361.311 358.663 364.387 357.856C364.422 357.565 364.422 357.271 364.387 356.98C363.991 355.16 362.119 353.872 358.666 352.997C352.071 351.339 345.296 350.502 338.496 350.507V350.507Z" fill="#E6E7E8"/>
<path d="M522.906 116.304H411.082C406.565 116.304 402.904 119.963 402.904 124.477V363.488C402.904 368.002 406.565 371.661 411.082 371.661H522.906C527.422 371.661 531.083 368.002 531.083 363.488V124.477C531.083 119.963 527.422 116.304 522.906 116.304Z" fill="#EAE8E5"/>
<path d="M522.906 372.485H411.082C408.695 372.48 406.408 371.531 404.721 369.845C403.034 368.158 402.084 365.872 402.079 363.488V124.46C402.084 122.075 403.034 119.789 404.721 118.103C406.408 116.416 408.695 115.467 411.082 115.462H522.906C525.295 115.462 527.587 116.41 529.277 118.097C530.968 119.783 531.921 122.072 531.925 124.46V363.488C531.921 365.875 530.968 368.164 529.277 369.851C527.587 371.537 525.295 372.485 522.906 372.485V372.485ZM411.082 117.128C409.136 117.128 407.27 117.9 405.894 119.275C404.519 120.65 403.746 122.515 403.746 124.46V363.488C403.746 365.432 404.519 367.297 405.894 368.672C407.27 370.047 409.136 370.819 411.082 370.819H522.906C524.851 370.819 526.717 370.047 528.093 368.672C529.469 367.297 530.242 365.432 530.242 363.488V124.46C530.242 122.515 529.469 120.65 528.093 119.275C526.717 117.9 524.851 117.128 522.906 117.128H411.082Z" fill="#231F20"/>
<path d="M524.349 139.398H409.638V335.912H524.349V139.398Z" fill="#383A59"/>
<path d="M477.911 345.476H456.076C453.305 345.476 451.059 347.721 451.059 350.49V358.852C451.059 361.621 453.305 363.865 456.076 363.865H477.911C480.682 363.865 482.928 361.621 482.928 358.852V350.49C482.928 347.721 480.682 345.476 477.911 345.476Z" fill="white"/>
<path d="M477.894 364.69H456.093C454.539 364.69 453.049 364.073 451.95 362.975C450.852 361.877 450.235 360.387 450.235 358.835V350.507C450.235 348.954 450.852 347.465 451.95 346.367C453.049 345.269 454.539 344.652 456.093 344.652H477.894C478.665 344.65 479.429 344.799 480.141 345.093C480.854 345.386 481.502 345.817 482.048 346.361C482.594 346.905 483.027 347.551 483.322 348.262C483.618 348.974 483.77 349.737 483.77 350.507V358.835C483.765 360.389 483.144 361.878 482.043 362.976C480.941 364.073 479.45 364.69 477.894 364.69ZM456.093 346.317C454.981 346.317 453.915 346.759 453.129 347.544C452.343 348.33 451.901 349.396 451.901 350.507V358.835C451.901 359.946 452.343 361.011 453.129 361.797C453.915 362.583 454.981 363.024 456.093 363.024H477.894C479.006 363.024 480.072 362.583 480.858 361.797C481.645 361.011 482.086 359.946 482.086 358.835V350.507C482.086 349.396 481.645 348.33 480.858 347.544C480.072 346.759 479.006 346.317 477.894 346.317H456.093Z" fill="#E6E7E8"/>
<path d="M478.581 128.151H445.94C445.83 128.154 445.721 128.134 445.619 128.094C445.517 128.053 445.424 127.993 445.345 127.916C445.267 127.839 445.205 127.748 445.162 127.647C445.12 127.545 445.098 127.437 445.098 127.327C445.098 127.104 445.186 126.89 445.344 126.732C445.502 126.574 445.716 126.486 445.94 126.486H478.581C478.691 126.486 478.8 126.508 478.901 126.55C479.002 126.593 479.094 126.655 479.171 126.733C479.248 126.812 479.308 126.905 479.348 127.007C479.389 127.108 479.408 127.218 479.406 127.327C479.408 127.436 479.389 127.544 479.348 127.645C479.307 127.746 479.247 127.838 479.17 127.915C479.093 127.992 479.001 128.053 478.9 128.093C478.799 128.134 478.69 128.154 478.581 128.151V128.151Z" fill="#E6E7E8"/>
<path d="M487.532 128.151H483.151C482.933 128.151 482.723 128.065 482.568 127.91C482.414 127.755 482.327 127.546 482.327 127.327C482.327 127.107 482.413 126.896 482.567 126.738C482.721 126.581 482.931 126.49 483.151 126.486H487.532C487.756 126.486 487.97 126.574 488.128 126.732C488.285 126.89 488.374 127.104 488.374 127.327C488.374 127.437 488.352 127.545 488.31 127.647C488.267 127.748 488.205 127.839 488.127 127.916C488.048 127.993 487.955 128.053 487.853 128.094C487.751 128.134 487.642 128.154 487.532 128.151V128.151Z" fill="#E6E7E8"/>
<path d="M509.78 262.87H424.138C422.434 262.87 420.8 262.193 419.595 260.989C418.39 259.785 417.713 258.151 417.713 256.448V214.175C417.711 213.33 417.875 212.493 418.197 211.712C418.519 210.931 418.992 210.221 419.589 209.623C420.186 209.025 420.895 208.55 421.676 208.226C422.456 207.903 423.293 207.736 424.138 207.736H509.712C511.42 207.736 513.059 208.414 514.267 209.622C515.475 210.829 516.154 212.467 516.154 214.175V256.448C516.15 258.141 515.478 259.764 514.286 260.966C513.093 262.168 511.474 262.852 509.78 262.87V262.87ZM424.138 209.419C422.876 209.419 421.666 209.92 420.773 210.812C419.881 211.704 419.38 212.913 419.38 214.175V256.448C419.38 257.709 419.881 258.919 420.773 259.811C421.666 260.703 422.876 261.204 424.138 261.204H509.712C510.974 261.204 512.184 260.703 513.077 259.811C513.969 258.919 514.471 257.709 514.471 256.448V214.175C514.471 212.913 513.969 211.704 513.077 210.812C512.184 209.92 510.974 209.419 509.712 209.419H424.138Z" fill="white"/>
<path d="M418.606 258.011C418.434 258.007 418.267 257.951 418.127 257.85C417.988 257.748 417.883 257.607 417.826 257.444C417.77 257.281 417.765 257.104 417.813 256.939C417.86 256.773 417.957 256.626 418.091 256.517L460.491 222.983C460.655 222.858 460.86 222.798 461.066 222.814C461.272 222.829 461.465 222.92 461.608 223.069L486.914 249.305C487.07 249.463 487.158 249.676 487.158 249.898C487.158 250.119 487.07 250.332 486.914 250.49C486.837 250.567 486.746 250.628 486.646 250.669C486.546 250.711 486.438 250.732 486.33 250.732C486.221 250.732 486.114 250.711 486.014 250.669C485.913 250.628 485.822 250.567 485.746 250.49L460.972 224.734L419.156 257.805C419.005 257.94 418.809 258.013 418.606 258.011V258.011Z" fill="white"/>
<path d="M515.381 249.597C515.263 249.595 515.147 249.568 515.04 249.518C514.933 249.468 514.839 249.395 514.762 249.305L500.709 233.388L484.646 246.798C484.477 246.939 484.26 247.008 484.041 246.988C483.821 246.969 483.619 246.864 483.478 246.695C483.337 246.527 483.268 246.309 483.287 246.09C483.307 245.871 483.412 245.669 483.581 245.528L500.263 231.585C500.417 231.435 500.623 231.351 500.838 231.351C501.053 231.351 501.26 231.435 501.414 231.585L515.999 248.12C516.076 248.197 516.137 248.288 516.179 248.388C516.221 248.488 516.242 248.596 516.242 248.704C516.242 248.813 516.221 248.92 516.179 249.02C516.137 249.12 516.076 249.211 515.999 249.288C515.928 249.385 515.835 249.463 515.728 249.517C515.62 249.571 515.501 249.598 515.381 249.597Z" fill="white"/>
<path d="M486.312 230.143C485.023 230.146 483.762 229.767 482.689 229.053C481.615 228.34 480.778 227.324 480.283 226.134C479.788 224.944 479.658 223.634 479.908 222.37C480.159 221.106 480.78 219.945 481.691 219.034C482.603 218.123 483.765 217.503 485.029 217.252C486.294 217.002 487.604 217.132 488.795 217.627C489.985 218.121 491.002 218.958 491.716 220.031C492.43 221.104 492.81 222.364 492.806 223.653C492.802 225.373 492.116 227.021 490.899 228.237C489.683 229.453 488.033 230.138 486.312 230.143V230.143ZM486.312 218.811C485.354 218.807 484.415 219.088 483.616 219.618C482.817 220.148 482.194 220.903 481.824 221.788C481.455 222.672 481.357 223.646 481.541 224.587C481.726 225.527 482.187 226.391 482.863 227.07C483.54 227.749 484.404 228.212 485.344 228.4C486.284 228.589 487.259 228.494 488.145 228.128C489.032 227.762 489.789 227.141 490.322 226.344C490.855 225.548 491.14 224.611 491.14 223.653C491.14 222.371 490.632 221.142 489.727 220.235C488.822 219.327 487.594 218.815 486.312 218.811V218.811Z" fill="white"/>
<path d="M430.804 303.924H426.183C422.938 303.924 420.307 306.553 420.307 309.796V317.008C420.307 320.251 422.938 322.88 426.183 322.88H430.804C434.049 322.88 436.68 320.251 436.68 317.008V309.796C436.68 306.553 434.049 303.924 430.804 303.924Z" fill="white"/>
<path d="M456.471 303.924H451.85C448.605 303.924 445.974 306.553 445.974 309.796V317.008C445.974 320.251 448.605 322.88 451.85 322.88H456.471C459.716 322.88 462.346 320.251 462.346 317.008V309.796C462.346 306.553 459.716 303.924 456.471 303.924Z" fill="white"/>
<path d="M482.138 303.924H477.516C474.271 303.924 471.641 306.553 471.641 309.796V317.008C471.641 320.251 474.271 322.88 477.516 322.88H482.138C485.383 322.88 488.013 320.251 488.013 317.008V309.796C488.013 306.553 485.383 303.924 482.138 303.924Z" fill="white"/>
<path d="M507.805 303.924H503.183C499.938 303.924 497.308 306.553 497.308 309.796V317.008C497.308 320.251 499.938 322.88 503.183 322.88H507.805C511.05 322.88 513.68 320.251 513.68 317.008V309.796C513.68 306.553 511.05 303.924 507.805 303.924Z" fill="white"/>
<path d="M514.161 155.778H419.826C419.716 155.781 419.607 155.761 419.505 155.721C419.403 155.68 419.31 155.62 419.232 155.543C419.154 155.466 419.091 155.375 419.049 155.274C419.006 155.173 418.984 155.064 418.984 154.954C418.984 154.731 419.073 154.517 419.231 154.359C419.389 154.202 419.603 154.113 419.826 154.113H514.161C514.385 154.113 514.599 154.202 514.757 154.359C514.914 154.517 515.003 154.731 515.003 154.954C515.003 155.064 514.981 155.173 514.939 155.274C514.896 155.375 514.834 155.466 514.755 155.543C514.677 155.62 514.584 155.68 514.482 155.721C514.38 155.761 514.271 155.781 514.161 155.778V155.778Z" fill="white"/>
<path d="M514.161 169.068H419.826C419.598 169.068 419.38 168.978 419.219 168.817C419.058 168.656 418.967 168.437 418.967 168.21C418.967 167.982 419.058 167.764 419.219 167.603C419.38 167.442 419.598 167.351 419.826 167.351H514.161C514.389 167.351 514.607 167.442 514.769 167.603C514.93 167.764 515.02 167.982 515.02 168.21C515.02 168.437 514.93 168.656 514.769 168.817C514.607 168.978 514.389 169.068 514.161 169.068Z" fill="white"/>
<path d="M514.161 182.358H419.826C419.603 182.358 419.389 182.269 419.231 182.112C419.073 181.954 418.984 181.74 418.984 181.517C418.984 181.407 419.006 181.298 419.049 181.197C419.091 181.096 419.154 181.004 419.232 180.928C419.31 180.851 419.403 180.791 419.505 180.75C419.607 180.71 419.716 180.69 419.826 180.692H514.161C514.271 180.69 514.38 180.71 514.482 180.75C514.584 180.791 514.677 180.851 514.755 180.928C514.834 181.004 514.896 181.096 514.939 181.197C514.981 181.298 515.003 181.407 515.003 181.517C515.003 181.74 514.914 181.954 514.757 182.112C514.599 182.269 514.385 182.358 514.161 182.358Z" fill="white"/>
<path d="M514.161 195.648H419.826C419.598 195.648 419.38 195.557 419.219 195.396C419.058 195.235 418.967 195.017 418.967 194.789C418.967 194.562 419.058 194.343 419.219 194.182C419.38 194.021 419.598 193.931 419.826 193.931H514.161C514.389 193.931 514.607 194.021 514.769 194.182C514.93 194.343 515.02 194.562 515.02 194.789C515.02 195.017 514.93 195.235 514.769 195.396C514.607 195.557 514.389 195.648 514.161 195.648Z" fill="white"/>
<path d="M514.161 277.962H419.826C419.598 277.962 419.38 277.872 419.219 277.711C419.058 277.55 418.967 277.331 418.967 277.104C418.967 276.876 419.058 276.658 419.219 276.497C419.38 276.336 419.598 276.245 419.826 276.245H514.161C514.389 276.245 514.607 276.336 514.769 276.497C514.93 276.658 515.02 276.876 515.02 277.104C515.02 277.331 514.93 277.55 514.769 277.711C514.607 277.872 514.389 277.962 514.161 277.962Z" fill="white"/>
<path d="M514.161 291.269H419.826C419.716 291.272 419.607 291.252 419.505 291.212C419.403 291.171 419.31 291.111 419.232 291.034C419.154 290.957 419.091 290.866 419.049 290.765C419.006 290.663 418.984 290.555 418.984 290.445C418.984 290.222 419.073 290.008 419.231 289.85C419.389 289.692 419.603 289.604 419.826 289.604H514.161C514.385 289.604 514.599 289.692 514.757 289.85C514.914 290.008 515.003 290.222 515.003 290.445C515.003 290.555 514.981 290.663 514.939 290.765C514.896 290.866 514.834 290.957 514.755 291.034C514.677 291.111 514.584 291.171 514.482 291.212C514.38 291.252 514.271 291.272 514.161 291.269Z" fill="white"/>
<path d="M496.586 26.5888C496.586 26.5888 498.699 17.5916 496.741 12.4749C496.164 11.0319 495.146 9.80815 493.831 8.97857C492.517 8.149 490.974 7.75608 489.422 7.85604C489.422 7.85604 475.197 4.6967 471.091 0.987915L472.947 7.54697C470.471 7.37319 468.054 6.7139 465.834 5.60673C465.547 6.72802 465.567 7.90563 465.89 9.01693C466.213 10.1282 466.829 11.1326 467.672 11.9254C466.648 12.4159 465.527 12.6706 464.391 12.6706C463.255 12.6706 462.134 12.4159 461.11 11.9254C461.11 11.9254 465.009 21.4893 474.081 20.5106C479.99 19.6349 490.453 28.5634 496.586 26.5888Z" fill="white"/>
<path d="M494.576 27.7222C491.329 27.7222 487.532 26.0051 483.821 24.2881C480.111 22.5711 476.623 20.8541 474.132 21.2146C464.528 22.3307 460.388 12.3032 460.285 12.2002C460.223 12.0384 460.213 11.8615 460.256 11.6938C460.299 11.526 460.393 11.3756 460.524 11.2629C460.656 11.1502 460.819 11.0809 460.991 11.0642C461.163 11.0476 461.337 11.0845 461.487 11.17C462.917 11.9158 464.581 12.0759 466.126 11.6164C465.499 10.7301 465.072 9.71875 464.873 8.65175C464.674 7.58476 464.709 6.48742 464.975 5.4351C465.003 5.31769 465.058 5.20839 465.135 5.11596C465.213 5.02353 465.311 4.95054 465.422 4.90283C465.533 4.85608 465.653 4.832 465.774 4.832C465.895 4.832 466.015 4.85608 466.126 4.90283C467.918 5.72695 469.814 6.30454 471.761 6.61986L470.232 1.22838C470.184 1.05306 470.194 0.867191 470.259 0.697497C470.323 0.527803 470.44 0.383035 470.593 0.284011C470.747 0.189483 470.928 0.148355 471.108 0.166974C471.289 0.185592 471.458 0.262922 471.589 0.387032C475.3 3.8211 488.065 6.72288 489.439 7.04912C491.159 6.9367 492.869 7.3757 494.321 8.30219C495.773 9.22868 496.892 10.5943 497.514 12.2002C499.558 17.4887 497.514 26.4172 497.394 26.795C497.367 26.9336 497.303 27.0624 497.209 27.1681C497.116 27.2738 496.995 27.3525 496.861 27.3959C496.122 27.6265 495.35 27.7367 494.576 27.7222V27.7222ZM474.716 19.4461C477.534 19.4461 480.935 21.0429 484.526 22.7084C488.632 24.6315 492.875 26.6061 495.882 25.9193C496.277 24.0306 497.6 16.9392 495.968 12.784C495.453 11.4943 494.542 10.4016 493.365 9.66387C492.189 8.92614 490.808 8.58167 489.422 8.68029H489.164C488.649 8.5601 477.946 6.17343 472.448 2.99692L473.668 7.30667C473.703 7.4321 473.708 7.56374 473.684 7.69165C473.661 7.81956 473.608 7.94038 473.531 8.04499C473.451 8.14713 473.35 8.22969 473.234 8.28626C473.118 8.34284 472.99 8.37191 472.861 8.37123C470.63 8.23853 468.441 7.70334 466.401 6.79156C466.302 7.62181 466.407 8.46368 466.706 9.24447C467.005 10.0253 467.49 10.7215 468.119 11.273C468.222 11.3644 468.303 11.4789 468.354 11.6072C468.404 11.7355 468.424 11.874 468.411 12.0113C468.397 12.151 468.347 12.2847 468.266 12.3991C468.184 12.5135 468.075 12.6048 467.947 12.6638C466.333 13.3905 464.541 13.6292 462.793 13.3506C464.374 15.9262 467.947 20.2187 473.943 19.5148C474.199 19.4742 474.457 19.4512 474.716 19.4461V19.4461Z" fill="#323232"/>
<path d="M508.595 101.881C508.595 101.881 520.999 74.7687 519.487 56.9974C517.975 39.2262 506.327 38.1101 502.307 37.8869C498.287 37.6637 476.864 34.779 469.047 44.3429C461.23 53.9068 463.257 99.9747 463.257 99.9747L508.595 101.881Z" fill="#5E73DD"/>
<path d="M462.346 90.8575C453.223 95.0282 444.51 100.041 436.319 105.83C429.069 110.741 424.963 162.578 424.963 162.578C424.963 162.578 426.458 170.905 436.095 169.601L461.47 111.857C461.47 111.857 470.524 90.6342 462.346 90.8575Z" fill="#231F20"/>
<path d="M434.12 170.528C431.799 170.587 429.531 169.833 427.708 168.397C425.886 166.961 424.623 164.932 424.138 162.664C424.13 162.595 424.13 162.526 424.138 162.458C424.568 157.1 428.502 110.088 435.855 105.092C444.107 99.293 452.877 94.2693 462.054 90.0847C462.15 90.0592 462.251 90.0592 462.346 90.0847C462.989 90.036 463.633 90.1563 464.215 90.4334C464.796 90.7105 465.295 91.1349 465.662 91.6643C468.875 96.3862 462.948 110.552 462.226 112.269L436.851 170.03C436.793 170.159 436.703 170.272 436.588 170.356C436.474 170.44 436.34 170.493 436.199 170.51C435.507 170.563 434.812 170.569 434.12 170.528ZM425.856 162.492C426.045 163.385 427.695 169.618 435.58 168.793L460.766 111.496C462.484 107.375 466.607 95.9054 464.322 92.6087C464.133 92.3314 463.875 92.107 463.575 91.9567C463.274 91.8065 462.94 91.7354 462.604 91.7502C453.595 95.9155 444.971 100.868 436.834 106.551C431.131 110.311 426.956 148.069 425.856 162.492Z" fill="#231F20"/>
<path d="M509.608 96.1802C509.608 96.1802 473.17 97.2276 464.597 95.9741C464.597 95.9741 464.116 96.0771 457.828 107.65C451.54 119.223 460.577 172.124 460.577 172.124C460.577 172.124 468.858 180.881 475.403 179.628L483.151 119.309C483.151 119.309 496.363 119.703 503.767 114.449C508.852 110.758 508.629 102.877 509.608 96.1802Z" fill="#231F20"/>
<path d="M474.063 180.589C467.5 180.589 460.319 173.035 459.958 172.691C459.846 172.573 459.774 172.423 459.752 172.262C459.374 170.098 450.733 119.034 457.089 107.255C463.446 95.4762 463.961 95.2358 464.425 95.2358H464.717C473.118 96.4893 509.23 95.459 509.591 95.4419C509.714 95.4343 509.838 95.4551 509.952 95.5026C510.066 95.5501 510.167 95.6231 510.248 95.7159C510.33 95.8088 510.389 95.9191 510.421 96.0382C510.453 96.1574 510.457 96.2824 510.433 96.4034C510.261 97.6397 510.107 98.9275 509.969 100.215C509.333 106.019 508.681 112.011 504.179 115.239C497.651 119.91 486.862 120.253 483.89 120.253L476.228 179.662C476.206 179.838 476.129 180.002 476.009 180.131C475.889 180.26 475.731 180.349 475.558 180.383C475.067 180.496 474.566 180.565 474.063 180.589ZM461.35 171.73C462.501 172.897 469.218 179.388 474.647 178.89L482.327 119.206C482.348 118.998 482.45 118.806 482.61 118.672C482.771 118.537 482.977 118.47 483.186 118.484C483.323 118.484 496.191 118.794 503.217 113.78C507.1 110.981 507.719 105.366 508.371 99.9233C508.474 98.9618 508.578 97.9831 508.698 97.0387C502.822 97.1932 473.53 97.9144 465.009 96.8498C464.511 97.571 462.982 99.992 458.601 108.045C452.691 118.845 460.68 167.729 461.35 171.73Z" fill="#231F20"/>
<path d="M469.029 44.343C469.029 44.343 463.257 55.4522 459.855 61.1528C456.602 66.0437 452.99 70.6867 449.049 75.0435C449.049 75.0435 422.85 84.3498 422.695 84.8478C422.541 85.3457 425.169 94.1541 425.169 94.1541C425.169 94.1541 452.657 92.1795 457.192 90.0332C461.728 87.8869 470.936 77.3272 470.936 77.3272L469.029 44.343Z" fill="#5E73DD"/>
<path d="M479.698 38.3849L481.262 47.8629C482.238 49.2698 483.695 50.2726 485.358 50.6834C487.022 51.0943 488.778 50.8851 490.298 50.095C496.294 47.4508 496.294 42.9178 496.294 42.9178L493.099 25.4041C493.099 25.4041 487.567 23.2578 484.698 12.4749C484.698 12.4749 470.954 13.5222 471.899 18.6562C471.899 18.6562 471.727 28.3231 473.187 33.0277C473.711 34.4104 474.588 35.6321 475.73 36.5718C476.872 37.5115 478.24 38.1365 479.698 38.3849V38.3849Z" fill="white"/>
<path d="M486.931 51.7091C485.675 51.6694 484.445 51.3386 483.339 50.7426C482.233 50.1466 481.281 49.3019 480.557 48.2751C480.502 48.1784 480.462 48.0743 480.437 47.966L478.96 39.0203C477.451 38.7191 476.048 38.0278 474.891 37.0155C473.733 36.0032 472.861 34.7052 472.362 33.251C470.868 28.4605 471.022 18.9997 471.022 18.6048C470.957 18.133 470.99 17.6528 471.12 17.1946C471.25 16.7364 471.475 16.3103 471.778 15.9434C474.476 12.5093 483.564 11.6851 484.595 11.6164C484.79 11.6016 484.984 11.6552 485.144 11.768C485.304 11.8808 485.419 12.0458 485.471 12.2346C488.168 22.3822 493.322 24.58 493.374 24.5972C493.505 24.6476 493.622 24.7309 493.712 24.8391C493.802 24.9473 493.863 25.0769 493.889 25.2153L497.084 42.729C497.084 43.0896 497.084 48.0347 490.642 50.8334C489.479 51.3804 488.215 51.6787 486.931 51.7091ZM482.052 47.5367C482.937 48.7362 484.223 49.578 485.677 49.9089C487.13 50.2399 488.655 50.0378 489.972 49.3396C495.298 47.0044 495.435 43.0724 495.435 42.9007L492.326 25.9708C490.917 25.2325 486.587 22.262 484.045 13.3678C481.055 13.6769 474.854 14.7414 473.084 17.0079C472.911 17.2121 472.787 17.452 472.718 17.7104C472.65 17.9687 472.64 18.239 472.689 18.5017C472.689 18.7593 472.551 28.2545 473.96 32.7874C474.413 34.0242 475.189 35.1175 476.207 35.9538C477.225 36.7901 478.448 37.339 479.75 37.5436L480.093 37.6466C480.204 37.7095 480.3 37.7958 480.375 37.8996C480.449 38.0034 480.499 38.1222 480.523 38.2476L482.052 47.5367Z" fill="#231F20"/>
<path d="M489.422 25.7475C489.489 24.8605 489.839 24.0183 490.419 23.3436C490.987 22.7371 491.656 22.2319 492.394 21.8498C492.78 21.6054 493.213 21.4472 493.666 21.3862C493.989 21.3834 494.309 21.4416 494.61 21.5579C495.314 21.7775 495.921 22.2322 496.328 22.8457C496.596 23.378 496.732 23.967 496.724 24.5627C496.772 25.2241 496.726 25.889 496.586 26.5373C496.437 27.1814 496.162 27.7895 495.775 28.326C495.389 28.8625 494.899 29.3168 494.336 29.6623C493.195 30.3445 491.835 30.5598 490.539 30.2633" fill="white"/>
<path d="M491.707 31.2936C491.244 31.2883 490.783 31.2307 490.333 31.1219C490.117 31.069 489.93 30.9328 489.814 30.743C489.698 30.5531 489.662 30.3252 489.714 30.1089C489.74 30.0023 489.787 29.902 489.853 29.8138C489.918 29.7256 490 29.6514 490.095 29.5954C490.189 29.5395 490.294 29.5029 490.402 29.4879C490.511 29.4728 490.622 29.4797 490.728 29.5079C491.812 29.7526 492.949 29.5745 493.906 29.01C494.847 28.4176 495.519 27.481 495.779 26.4001C495.892 25.8353 495.933 25.2582 495.899 24.6831C495.914 24.2083 495.814 23.737 495.607 23.3094C495.29 22.8497 494.822 22.5155 494.284 22.3651C494.083 22.3013 493.876 22.261 493.666 22.2449C493.339 22.3046 493.028 22.4334 492.755 22.6226C492.113 22.95 491.531 23.3856 491.037 23.9104C490.568 24.4461 490.29 25.1226 490.247 25.8335C490.229 26.0551 490.126 26.2613 489.96 26.4086C489.793 26.5559 489.576 26.6329 489.353 26.6233C489.244 26.6168 489.136 26.5884 489.037 26.5397C488.938 26.4911 488.851 26.4231 488.778 26.3399C488.706 26.2567 488.652 26.1599 488.618 26.0552C488.584 25.9505 488.571 25.8401 488.58 25.7304C488.655 24.6614 489.071 23.6445 489.766 22.8287C490.39 22.1294 491.135 21.5478 491.965 21.1116C492.486 20.7893 493.073 20.5896 493.683 20.5278C494.116 20.5267 494.547 20.6023 494.954 20.7511C495.88 21.029 496.67 21.6409 497.17 22.4681C497.514 23.1309 497.691 23.8677 497.686 24.6144C497.729 25.3506 497.677 26.0893 497.531 26.8122C497.226 28.0958 496.498 29.2395 495.463 30.0587C494.428 30.878 493.147 31.3251 491.827 31.328L491.707 31.2936Z" fill="#231F20"/>
<path d="M480.729 23.2063C480.729 23.2063 478.152 28.5634 479.011 29.3018C479.87 30.0401 482.017 29.1644 482.017 29.1644" fill="white"/>
<path d="M480.111 30.4178C479.544 30.4461 478.985 30.2761 478.53 29.937C478.169 29.6451 477.121 28.7866 479.99 22.8457C480.087 22.6504 480.255 22.5002 480.46 22.4265C480.665 22.3529 480.891 22.3616 481.09 22.4507C481.19 22.4967 481.281 22.5624 481.355 22.6439C481.43 22.7254 481.487 22.821 481.524 22.9252C481.561 23.0293 481.576 23.1397 481.57 23.2499C481.563 23.3602 481.534 23.4679 481.485 23.5668C480.65 25.185 480.07 26.9226 479.767 28.7179C480.46 28.801 481.162 28.6879 481.794 28.3917C482 28.3104 482.229 28.3115 482.434 28.3946C482.638 28.4778 482.803 28.6366 482.894 28.8381C482.936 28.9407 482.957 29.0505 482.957 29.1613C482.956 29.2722 482.933 29.3818 482.89 29.4839C482.847 29.586 482.784 29.6786 482.705 29.7564C482.626 29.8341 482.533 29.8955 482.43 29.937C481.692 30.2354 480.906 30.3983 480.111 30.4178V30.4178Z" fill="#231F20"/>
<path d="M484.969 22.9838C485.422 22.9378 485.737 22.3881 485.673 21.756C485.609 21.1239 485.189 20.6488 484.736 20.6948C484.283 20.7408 483.968 21.2905 484.032 21.9226C484.096 22.5547 484.516 23.0298 484.969 22.9838Z" fill="#231F20"/>
<path d="M478.013 24.2088C478.466 24.1659 478.785 23.6185 478.725 22.9859C478.666 22.3534 478.249 21.8753 477.796 21.9182C477.343 21.961 477.024 22.5085 477.083 23.141C477.143 23.7736 477.559 24.2516 478.013 24.2088Z" fill="#231F20"/>
<path d="M481.485 34.6246C479.911 34.5914 478.357 34.2713 476.898 33.6802C476.797 33.6374 476.705 33.5746 476.628 33.4958C476.552 33.417 476.491 33.3236 476.451 33.2212C476.411 33.1188 476.392 33.0095 476.395 32.8996C476.398 32.7897 476.423 32.6815 476.468 32.5813C476.562 32.3829 476.728 32.2279 476.933 32.1481C477.137 32.0682 477.364 32.0697 477.568 32.1521C477.568 32.1521 481.468 33.8691 484.096 32.3753C484.785 31.9289 485.36 31.3291 485.777 30.6231C486.195 29.917 486.442 29.1239 486.501 28.3059C486.538 28.0782 486.663 27.8743 486.85 27.7391C487.037 27.6039 487.27 27.5483 487.498 27.5848C487.726 27.6212 487.93 27.7466 488.065 27.9334C488.2 28.1201 488.256 28.353 488.219 28.5807C488.124 29.6505 487.779 30.6832 487.213 31.5957C486.646 32.5082 485.873 33.2751 484.955 33.8348C483.888 34.3981 482.691 34.6705 481.485 34.6246V34.6246Z" fill="#231F20"/>
<path d="M479.698 38.385C479.698 38.385 485.814 38.7627 488.975 36.2043C488.975 36.2043 486.433 44.7895 480.781 44.7895L479.698 38.385Z" fill="#231F20"/>
<path d="M480.832 45.7338C480.635 45.7354 480.443 45.6647 480.295 45.5349C480.146 45.4052 480.05 45.2255 480.025 45.0298L478.942 38.5394C478.919 38.4142 478.925 38.285 478.961 38.1627C478.997 38.0403 479.061 37.9282 479.148 37.8354C479.232 37.7417 479.336 37.6682 479.452 37.6206C479.568 37.573 479.693 37.5525 479.818 37.5607C479.818 37.5607 485.66 37.887 488.512 35.569C488.652 35.4618 488.822 35.4013 488.998 35.3961C489.175 35.3909 489.348 35.4412 489.494 35.5399C489.64 35.6385 489.752 35.7806 489.813 35.9461C489.874 36.1115 489.881 36.2919 489.834 36.4618C489.731 36.8224 487.068 45.6308 480.849 45.7338H480.832ZM480.832 39.2606L481.622 43.9996C484.543 43.5016 486.484 40.308 487.498 38.1102C485.312 38.899 483.001 39.283 480.677 39.2434L480.832 39.2606Z" fill="#231F20"/>
<path d="M513.68 42.2997C518.576 43.1583 538.385 88.9343 531.599 94.1541C521.016 102.31 484.182 94.1541 484.182 94.1541L487.189 79.9543C487.189 79.9543 510.863 80.6239 511.241 75.7647C511.619 70.9055 497.497 48.4124 499.318 45.047C501.139 41.6816 513.68 42.2997 513.68 42.2997Z" fill="#5E73DD"/>
<path d="M489.731 84.5559C485.8 84.8061 481.852 84.616 477.963 83.9893C475.084 83.2902 472.13 82.95 469.167 82.9763C465.264 83.162 461.424 84.0399 457.828 85.569C457.675 85.6171 457.539 85.7062 457.433 85.8265C457.09 86.3073 457.914 86.7881 458.515 86.8052C460.076 86.8356 461.633 86.639 463.137 86.2215C459.414 87.5962 455.895 89.4675 452.674 91.7846C452.296 92.0422 451.901 92.4543 452.073 92.8664C452.245 93.2784 453.001 93.2098 453.482 92.9866L461.934 89.1232C459.741 90.0018 457.71 91.2377 455.921 92.7805C455.681 93.0037 455.389 93.2956 455.475 93.6219C455.56 93.9481 456.437 94.0855 456.969 93.8279C459.544 92.5408 462.004 91.0357 464.322 89.3293L459.168 93.3471C459.168 93.7592 459.563 94.1198 459.993 94.137C460.423 94.1099 460.839 93.9676 461.196 93.7249L467.019 90.2908L463.395 92.832C462.81 93.2269 462.158 93.8794 462.45 94.5491C462.742 95.2187 463.893 95.0642 464.649 94.7379C467.636 93.4433 470.76 92.4873 473.96 91.8877C475.075 91.5244 476.228 91.2882 477.396 91.1837C479.196 91.4211 480.972 91.8118 482.705 92.3513C485.35 92.935 487.979 93.536 490.608 94.0683" fill="white"/>
<path d="M463.291 95.8368C463.04 95.8418 462.79 95.801 462.553 95.7166C462.358 95.6456 462.181 95.536 462.03 95.3943C461.879 95.2526 461.759 95.0819 461.676 94.8924C461.601 94.725 461.56 94.5439 461.556 94.3602C461.083 94.6938 460.52 94.879 459.941 94.8924C459.708 94.8805 459.479 94.8211 459.269 94.7177C459.06 94.6144 458.873 94.4694 458.722 94.2915C458.625 94.1766 458.544 94.0496 458.481 93.9137C458.12 94.1198 457.742 94.3087 457.364 94.4975C457.078 94.6553 456.761 94.7492 456.434 94.7729C456.108 94.7966 455.781 94.7496 455.474 94.6349C455.299 94.5528 455.146 94.4308 455.027 94.2787C454.907 94.1266 454.825 93.9487 454.787 93.7592C454.753 93.5892 454.753 93.4141 454.787 93.2441L453.86 93.6734C453.331 93.9512 452.715 94.0127 452.142 93.8451C451.98 93.7868 451.833 93.6957 451.709 93.5775C451.584 93.4592 451.486 93.3165 451.42 93.1583C451.265 92.832 451.076 91.9907 452.262 91.1493C454.157 89.7831 456.156 88.5661 458.24 87.5092C457.936 87.4749 457.644 87.372 457.385 87.2085C457.126 87.0449 456.907 86.8249 456.746 86.5648C456.652 86.3741 456.612 86.1614 456.63 85.9496C456.648 85.7377 456.724 85.5349 456.849 85.3629C457.031 85.1286 457.275 84.95 457.553 84.8478C461.236 83.2816 465.169 82.386 469.167 82.2036C471.82 82.1411 474.47 82.4181 477.052 83.0278L478.135 83.2166C481.973 83.8344 485.868 84.0244 489.748 83.7833V83.7833C489.948 83.7831 490.139 83.8597 490.283 83.9973C490.427 84.1348 490.513 84.3227 490.522 84.5216C490.522 84.7224 490.446 84.9159 490.309 85.0626C490.171 85.2094 489.983 85.2983 489.783 85.3114C485.793 85.5452 481.79 85.3495 477.843 84.7276L476.743 84.5216C474.278 83.9445 471.75 83.6734 469.218 83.7146C465.605 83.897 462.047 84.6744 458.687 86.0154C460.127 86.0465 461.563 85.8613 462.948 85.4659C463.139 85.4022 463.348 85.417 463.528 85.5072C463.709 85.5973 463.846 85.7555 463.91 85.9467C463.974 86.138 463.959 86.3467 463.869 86.5271C463.778 86.7074 463.62 86.8445 463.429 86.9083C459.852 88.2263 456.462 90.004 453.344 92.1967L459.649 89.3121C460.302 88.9859 460.955 88.6768 461.625 88.4192C461.809 88.3396 462.018 88.3364 462.205 88.4105C462.392 88.4845 462.542 88.6297 462.621 88.8142C462.701 88.9986 462.704 89.2071 462.63 89.3939C462.556 89.5807 462.411 89.7303 462.226 89.81L460.319 90.6857C459.037 91.354 457.828 92.1539 456.711 93.0724C459.225 91.8152 461.622 90.3385 463.876 88.6596C463.955 88.5992 464.046 88.5553 464.143 88.5303C464.24 88.5054 464.341 88.4999 464.44 88.5143C464.54 88.5287 464.635 88.5626 464.721 88.6141C464.807 88.6655 464.881 88.7335 464.941 88.8142C465.002 88.8929 465.047 88.983 465.073 89.0793C465.1 89.1756 465.107 89.2761 465.094 89.3751C465.081 89.4741 465.049 89.5695 464.999 89.656C464.949 89.7424 464.883 89.8181 464.803 89.8787L460.646 93.0381H460.749L466.573 89.604C466.742 89.5278 466.933 89.5149 467.111 89.5678C467.289 89.6206 467.442 89.7357 467.542 89.8919C467.642 90.0481 467.682 90.2351 467.656 90.4186C467.629 90.6022 467.537 90.7702 467.397 90.8918L463.755 93.433C463.171 93.8451 463.051 94.1541 463.068 94.1885C463.481 94.2692 463.908 94.1959 464.271 93.9824C467.319 92.6592 470.506 91.6802 473.771 91.0635L474.871 90.7716C475.687 90.509 476.539 90.3757 477.396 90.3767C478.709 90.4796 480.006 90.7331 481.262 91.1322C481.811 91.2867 482.344 91.4412 482.859 91.5442L490.762 93.3643C490.859 93.3868 490.951 93.4283 491.032 93.4862C491.113 93.5441 491.181 93.6175 491.234 93.702C491.287 93.7865 491.322 93.8805 491.339 93.9787C491.355 94.0769 491.352 94.1774 491.329 94.2743C491.306 94.3713 491.265 94.4628 491.207 94.5438C491.149 94.6247 491.076 94.6935 490.991 94.7461C490.907 94.7987 490.813 94.8342 490.714 94.8505C490.616 94.8667 490.515 94.8635 490.418 94.8409C487.79 94.24 485.161 93.6218 482.516 93.1239C481.983 93.0037 481.433 92.8492 480.798 92.6946C479.681 92.3368 478.529 92.1008 477.362 91.9907C476.647 92.0023 475.939 92.1299 475.266 92.3684C474.871 92.4714 474.475 92.5916 474.063 92.6603C470.909 93.2761 467.832 94.2377 464.889 95.5278C464.382 95.7345 463.839 95.8395 463.291 95.8368V95.8368Z" fill="#231F20"/>
<path d="M471.572 48.361C470.266 49.6831 466.985 70.4935 465.782 80.3149Z" fill="white"/>
<path d="M465.782 81.0875H465.679C465.481 81.0618 465.302 80.9589 465.179 80.8013C465.057 80.6437 465.002 80.4442 465.027 80.2462C465.765 74.1336 469.304 49.5972 471.04 47.8286C471.187 47.7145 471.37 47.6573 471.556 47.6674C471.742 47.6776 471.918 47.7545 472.052 47.884C472.185 48.0135 472.268 48.1868 472.284 48.3723C472.3 48.5577 472.249 48.7427 472.139 48.8932C471.022 50.4214 467.861 69.6006 466.538 80.4351C466.51 80.6156 466.418 80.7802 466.28 80.8997C466.142 81.0191 465.965 81.0857 465.782 81.0875Z" fill="#231F20"/>
<path d="M422.163 99.9062L422.747 103.804L476.657 111.668L475.747 107.65L422.163 99.9062Z" fill="white"/>
<path d="M476.657 112.509H476.537L422.626 104.628C422.449 104.601 422.286 104.518 422.159 104.391C422.032 104.265 421.949 104.101 421.922 103.924L421.338 100.026C421.314 99.897 421.321 99.7637 421.36 99.638C421.399 99.5123 421.468 99.398 421.561 99.3051C421.657 99.2154 421.771 99.1475 421.896 99.106C422.02 99.0645 422.152 99.0504 422.283 99.0647L475.867 106.826C476.033 106.85 476.187 106.923 476.31 107.036C476.432 107.15 476.518 107.298 476.554 107.461L477.396 111.496C477.431 111.625 477.432 111.761 477.399 111.89C477.366 112.02 477.3 112.138 477.207 112.234C477.066 112.393 476.869 112.492 476.657 112.509ZM423.4 103.065L475.506 110.672L474.991 108.388L423.073 100.885L423.4 103.065Z" fill="#231F20"/>
<path d="M422.163 99.9062C422.163 99.9062 434.429 89.3808 434.841 89.4838C435.254 89.5868 490.384 96.1802 490.384 96.1802L475.678 107.65L422.163 99.9062Z" fill="white"/>
<path d="M475.678 108.491L422.042 100.679C421.883 100.653 421.734 100.583 421.612 100.477C421.491 100.371 421.402 100.232 421.355 100.078C421.308 99.9253 421.308 99.7623 421.354 99.6095C421.4 99.4567 421.49 99.3209 421.613 99.2193C434.223 88.402 434.498 88.4878 435.03 88.608C435.855 88.7454 471.675 93.038 490.487 95.2873C490.653 95.3089 490.808 95.3792 490.933 95.4893C491.059 95.5994 491.149 95.7442 491.192 95.9054C491.241 96.0636 491.239 96.2332 491.187 96.3903C491.135 96.5475 491.034 96.6842 490.9 96.7811L476.262 108.251C476.186 108.327 476.094 108.388 475.994 108.429C475.894 108.47 475.787 108.492 475.678 108.491ZM424.138 99.3395L475.541 106.774L488.323 96.7639C471.727 94.7722 438.741 90.823 435.065 90.3422C433.828 91.1149 428.244 95.8024 424.138 99.3395Z" fill="#231F20"/>
<path d="M476.657 111.668L490.728 99.9061L490.384 96.1802L475.747 107.65L476.657 111.668Z" fill="white"/>
<path d="M476.657 112.509C476.572 112.525 476.485 112.525 476.4 112.509C476.262 112.468 476.138 112.391 476.041 112.285C475.944 112.179 475.878 112.049 475.85 111.908L474.939 107.89C474.9 107.737 474.907 107.575 474.959 107.426C475.011 107.276 475.106 107.145 475.231 107.049L489.869 95.5277C489.988 95.4346 490.13 95.3752 490.28 95.3557C490.429 95.3363 490.582 95.3576 490.721 95.4173C490.859 95.477 490.98 95.573 491.069 95.6951C491.157 95.8173 491.212 95.9611 491.226 96.1115L491.552 99.8375C491.567 99.9724 491.548 100.109 491.497 100.235C491.446 100.36 491.365 100.472 491.26 100.559L477.19 112.337C477.036 112.451 476.849 112.512 476.657 112.509V112.509ZM476.657 107.976L477.156 110.157L489.834 99.5456L489.68 97.8286L476.657 107.976Z" fill="#231F20"/>
<path d="M422.163 99.9063L411.803 65.2051L468.634 74.8891L475.747 107.65L422.163 99.9063Z" fill="#EAE8E5"/>
<path d="M475.678 108.491L422.042 100.679C421.881 100.657 421.73 100.589 421.608 100.482C421.486 100.375 421.398 100.235 421.355 100.078L411.047 65.3938C411.008 65.2573 411.003 65.1131 411.035 64.9745C411.066 64.8358 411.132 64.7074 411.226 64.6011C411.32 64.4948 411.44 64.4142 411.574 64.3666C411.708 64.3191 411.852 64.3062 411.992 64.3292L468.806 74.0648C468.969 74.0918 469.119 74.1667 469.238 74.2799C469.358 74.3931 469.441 74.5395 469.476 74.7001L476.554 107.547C476.586 107.677 476.583 107.814 476.547 107.943C476.511 108.072 476.442 108.19 476.348 108.285C476.259 108.367 476.152 108.427 476.036 108.463C475.92 108.499 475.798 108.508 475.678 108.491V108.491ZM422.73 99.1506L474.613 106.654L467.93 75.6101L412.954 66.2523L422.73 99.1506Z" fill="#231F20"/>
<path d="M502.101 99.0992H501.963L490.47 97.1246C490.278 97.0897 490.104 96.9909 489.976 96.8443C489.849 96.6977 489.774 96.512 489.766 96.3176L489.405 82.5813C489.395 82.3701 489.469 82.1636 489.611 82.0062C489.752 81.8489 489.95 81.7533 490.161 81.74L510.485 79.6452L501.448 48.5841C501.389 48.3724 501.416 48.1461 501.522 47.9536C501.627 47.7611 501.805 47.6176 502.015 47.5539C502.121 47.5222 502.232 47.5118 502.342 47.5231C502.452 47.5345 502.559 47.5674 502.657 47.62C502.754 47.6726 502.84 47.7439 502.91 47.8298C502.979 47.9157 503.031 48.0145 503.063 48.1205L512.357 80.0745C512.392 80.1894 512.401 80.3107 512.383 80.4295C512.366 80.5483 512.321 80.6617 512.254 80.7613C512.186 80.8627 512.097 80.9487 511.994 81.0138C511.89 81.0788 511.774 81.1215 511.653 81.139L491.037 83.251L491.381 95.5621L502.204 97.4165C502.317 97.4266 502.426 97.4589 502.527 97.5114C502.627 97.5639 502.716 97.6357 502.789 97.7226C502.861 97.8095 502.916 97.9098 502.95 98.0178C502.984 98.1259 502.996 98.2395 502.986 98.3522C502.975 98.465 502.943 98.5746 502.891 98.6749C502.838 98.7752 502.766 98.8641 502.679 98.9367C502.592 99.0092 502.492 99.064 502.384 99.0977C502.276 99.1315 502.162 99.1436 502.049 99.1335L502.101 99.0992Z" fill="#231F20"/>
<path d="M426.698 153.323C425.751 152.448 424.759 151.623 423.726 150.85C421.493 149.133 416.699 146.712 415.325 150.662C414.466 153.1 415.789 156.345 416.699 158.594C418.498 162.896 421.24 166.739 424.722 169.841C427.763 172.588 437.453 176.554 436.748 168.896C436.562 167.511 436.119 166.171 435.443 164.947C433.257 160.575 430.294 156.636 426.698 153.323V153.323Z" fill="white"/>
<path d="M433.175 174.116C429.876 173.849 426.745 172.552 424.224 170.408C420.654 167.23 417.842 163.293 415.995 158.886C415.067 156.585 413.659 153.134 414.604 150.404C414.772 149.832 415.078 149.309 415.494 148.881C415.91 148.454 416.424 148.133 416.992 147.949C419.792 147.107 423.486 149.666 424.19 150.25C425.24 151.033 426.249 151.87 427.214 152.756V152.756C430.888 156.129 433.916 160.144 436.147 164.604C436.864 165.914 437.33 167.347 437.522 168.828C437.796 171.815 436.559 173.103 435.46 173.636C434.748 173.976 433.964 174.141 433.175 174.116V174.116ZM418.194 149.305C417.938 149.302 417.684 149.337 417.438 149.408C417.097 149.521 416.79 149.719 416.546 149.983C416.303 150.248 416.131 150.57 416.047 150.919C415.291 153.083 416.562 156.225 417.404 158.302C419.161 162.5 421.838 166.249 425.238 169.274C427.403 171.249 432.488 173.429 434.79 172.279C435.769 171.781 436.164 170.699 436.01 168.965C435.822 167.676 435.403 166.431 434.773 165.291C432.641 160.991 429.728 157.125 426.183 153.89C425.255 153.031 424.276 152.173 423.279 151.469C421.826 150.276 420.061 149.525 418.194 149.305V149.305Z" fill="#231F20"/>
<path d="M459.426 157.598C458.764 157.135 457.964 156.911 457.158 156.963C456.653 157.083 456.19 157.339 455.818 157.701C455.126 158.414 454.603 159.274 454.287 160.216C453.972 161.158 453.873 162.159 453.997 163.144C454.244 165.112 454.856 167.016 455.801 168.759C458.429 174.219 461.986 179.508 467.26 182.495C468.207 183.057 469.24 183.457 470.318 183.68C479.698 185.397 475.815 176.091 473.513 171.884C470.25 165.897 465.369 160.946 459.426 157.598Z" fill="white"/>
<path d="M472.328 184.607C471.608 184.6 470.889 184.531 470.181 184.401C469.024 184.164 467.914 183.734 466.899 183.131C462.261 180.521 458.412 175.936 455.114 169.103C454.137 167.268 453.497 165.273 453.224 163.213C453.088 162.111 453.204 160.993 453.564 159.943C453.924 158.893 454.519 157.938 455.303 157.152C455.774 156.683 456.37 156.361 457.021 156.225C457.997 156.132 458.974 156.381 459.787 156.929C465.844 160.346 470.829 165.382 474.184 171.472C475.902 174.528 478.358 180.057 476.297 182.959C475.822 183.539 475.212 183.993 474.519 184.281C473.827 184.568 473.074 184.68 472.328 184.607V184.607ZM457.485 157.701H457.278C456.919 157.795 456.592 157.985 456.334 158.251C455.723 158.88 455.263 159.64 454.99 160.473C454.716 161.306 454.635 162.19 454.753 163.059C454.986 164.936 455.569 166.753 456.471 168.416C459.615 174.975 463.343 179.336 467.604 181.774C468.473 182.3 469.426 182.671 470.421 182.873C472.775 183.302 474.321 183.01 475.008 182.049C476.348 180.177 474.75 175.73 472.809 172.193C469.614 166.359 464.854 161.531 459.065 158.251C458.59 157.944 458.048 157.756 457.485 157.701V157.701Z" fill="#231F20"/>
<path d="M455.663 128.151C455.456 128.152 455.256 128.075 455.103 127.935C454.951 127.795 454.856 127.602 454.839 127.396C454.839 127.018 453.894 117.798 455.474 112.543C455.505 112.439 455.556 112.341 455.624 112.256C455.692 112.17 455.777 112.099 455.872 112.047C455.968 111.994 456.073 111.961 456.182 111.949C456.29 111.937 456.4 111.946 456.505 111.977C456.61 112.007 456.708 112.058 456.793 112.126C456.879 112.195 456.95 112.279 457.002 112.375C457.055 112.47 457.088 112.575 457.1 112.684C457.112 112.792 457.103 112.902 457.072 113.007C455.595 117.952 456.471 127.155 456.488 127.241C456.507 127.462 456.439 127.681 456.297 127.851C456.156 128.022 455.953 128.129 455.732 128.151H455.663Z" fill="white"/>
<path d="M355.041 63.4364H13.744C6.58044 63.4364 0.773193 69.2404 0.773193 76.4V310.449C0.773193 317.608 6.58044 323.412 13.744 323.412H355.041C362.204 323.412 368.012 317.608 368.012 310.449V76.4C368.012 69.2404 362.204 63.4364 355.041 63.4364Z" fill="#EAE8E5"/>
<path d="M355.041 324.254H13.744C10.1058 324.231 6.62303 322.777 4.0504 320.205C1.47778 317.634 0.022528 314.153 0 310.517V76.4001C0 72.757 1.44802 69.2631 4.02551 66.6871C6.603 64.111 10.0988 62.6638 13.744 62.6638H355.041C358.686 62.6638 362.182 64.111 364.759 66.6871C367.337 69.2631 368.785 72.757 368.785 76.4001V310.466C368.791 312.274 368.441 314.066 367.753 315.738C367.066 317.411 366.054 318.931 364.777 320.212C363.5 321.493 361.983 322.51 360.312 323.203C358.641 323.897 356.85 324.254 355.041 324.254V324.254ZM13.744 64.2778C10.5255 64.2778 7.43871 65.5544 5.16135 67.8273C2.88398 70.1002 1.60229 73.1835 1.59774 76.4001V310.466C1.60229 313.682 2.88398 316.766 5.16135 319.039C7.43871 321.311 10.5255 322.588 13.744 322.588H355.041C358.256 322.584 361.339 321.305 363.612 319.033C365.886 316.76 367.165 313.679 367.17 310.466V76.4001C367.165 73.1864 365.886 70.1057 363.612 67.8334C361.339 65.561 358.256 64.2824 355.041 64.2778H13.744Z" fill="#231F20"/>
<path d="M354.422 97.0558H14.3453V309.744H354.422V97.0558Z" fill="#1C1E2A"/>
<path d="M354.422 310.603H14.3451C14.1173 310.603 13.8988 310.513 13.7377 310.352C13.5766 310.191 13.4861 309.972 13.4861 309.744V97.0558C13.4861 96.8281 13.5766 96.6097 13.7377 96.4487C13.8988 96.2877 14.1173 96.1973 14.3451 96.1973H354.508C354.736 96.1973 354.954 96.2877 355.115 96.4487C355.276 96.6097 355.367 96.8281 355.367 97.0558V309.744C355.368 309.865 355.343 309.984 355.294 310.094C355.246 310.204 355.175 310.303 355.086 310.384C354.997 310.465 354.892 310.526 354.777 310.564C354.663 310.602 354.542 310.615 354.422 310.603ZM15.2557 308.886H353.7V97.9143H15.2557V308.886Z" fill="#231F20"/>
<path d="M354.422 77.1039H14.3453V97.0558H354.422V77.1039Z" fill="#383A59"/>
<path d="M354.422 97.9144H14.3451C14.1173 97.9144 13.8988 97.824 13.7377 97.663C13.5766 97.502 13.4861 97.2836 13.4861 97.0559V77.104C13.4861 76.8763 13.5766 76.6579 13.7377 76.4969C13.8988 76.3359 14.1173 76.2455 14.3451 76.2455H354.508C354.736 76.2455 354.954 76.3359 355.115 76.4969C355.276 76.6579 355.367 76.8763 355.367 77.104V97.0559C355.368 97.1762 355.343 97.2954 355.294 97.4055C355.246 97.5157 355.175 97.6145 355.086 97.6954C354.997 97.7764 354.892 97.8377 354.777 97.8754C354.663 97.9132 354.542 97.9264 354.422 97.9144ZM15.2557 96.1974H353.7V77.9625H15.2557V96.1974Z" fill="#5E73DD"/>
<path d="M82.5324 118.227H53.3265C53.2168 118.229 53.1077 118.209 53.0056 118.169C52.9036 118.129 52.8107 118.068 52.7323 117.992C52.6538 117.915 52.5916 117.823 52.5491 117.722C52.5066 117.621 52.4847 117.512 52.4847 117.403C52.4847 117.179 52.5734 116.965 52.7312 116.808C52.8891 116.65 53.1032 116.561 53.3265 116.561H82.5324C82.6422 116.561 82.7508 116.583 82.852 116.626C82.9532 116.668 83.0449 116.73 83.1217 116.809C83.1985 116.887 83.2589 116.98 83.2993 117.082C83.3397 117.184 83.3593 117.293 83.357 117.403C83.3594 117.511 83.3397 117.62 83.299 117.721C83.2584 117.822 83.1978 117.914 83.1207 117.991C83.0437 118.068 82.9518 118.128 82.8507 118.169C82.7496 118.209 82.6413 118.229 82.5324 118.227Z" fill="white"/>
<path d="M148.417 118.227H90.0056C89.8966 118.229 89.7883 118.209 89.6872 118.169C89.5861 118.128 89.4943 118.068 89.4172 117.991C89.3402 117.914 89.2795 117.822 89.2389 117.721C89.1983 117.62 89.1786 117.511 89.1809 117.403C89.1786 117.293 89.1983 117.184 89.2387 117.082C89.2791 116.98 89.3395 116.887 89.4163 116.809C89.4931 116.73 89.5848 116.668 89.686 116.626C89.7871 116.583 89.8958 116.561 90.0056 116.561H148.417C148.641 116.561 148.855 116.65 149.013 116.808C149.17 116.965 149.259 117.179 149.259 117.403C149.259 117.512 149.237 117.621 149.195 117.722C149.152 117.823 149.09 117.915 149.012 117.992C148.933 118.068 148.84 118.129 148.738 118.169C148.636 118.209 148.527 118.229 148.417 118.227V118.227Z" fill="#5E73DD"/>
<path d="M168.604 130.452H110.192C109.964 130.452 109.746 130.362 109.585 130.201C109.424 130.04 109.333 129.821 109.333 129.594C109.333 129.366 109.424 129.148 109.585 128.987C109.746 128.826 109.964 128.735 110.192 128.735H168.604C168.832 128.735 169.05 128.826 169.211 128.987C169.372 129.148 169.463 129.366 169.463 129.594C169.463 129.821 169.372 130.04 169.211 130.201C169.05 130.362 168.832 130.452 168.604 130.452Z" fill="#5E73DD"/>
<path d="M89.3871 130.452H60.1812C59.9534 130.452 59.7349 130.362 59.5738 130.201C59.4127 130.04 59.3222 129.821 59.3222 129.594C59.3222 129.366 59.4127 129.148 59.5738 128.987C59.7349 128.826 59.9534 128.735 60.1812 128.735H89.3871C89.6149 128.735 89.8334 128.826 89.9945 128.987C90.1556 129.148 90.2461 129.366 90.2461 129.594C90.2461 129.821 90.1556 130.04 89.9945 130.201C89.8334 130.362 89.6149 130.452 89.3871 130.452Z" fill="white"/>
<path d="M96.2591 142.66H67.0532C66.8299 142.66 66.6158 142.572 66.4579 142.414C66.3001 142.256 66.2114 142.042 66.2114 141.819C66.2113 141.709 66.2332 141.601 66.2757 141.5C66.3182 141.398 66.3805 141.307 66.4589 141.23C66.5373 141.153 66.6303 141.093 66.7323 141.053C66.8344 141.012 66.9434 140.993 67.0532 140.995H96.2591C96.368 140.992 96.4763 141.012 96.5774 141.053C96.6785 141.093 96.7703 141.154 96.8474 141.231C96.9244 141.308 96.9851 141.4 97.0257 141.501C97.0663 141.602 97.086 141.71 97.0837 141.819C97.086 141.929 97.0664 142.038 97.0259 142.14C96.9855 142.242 96.9251 142.335 96.8483 142.413C96.7715 142.491 96.6798 142.554 96.5787 142.596C96.4775 142.638 96.3688 142.66 96.2591 142.66V142.66Z" fill="white"/>
<path d="M179.032 142.66H106C105.89 142.66 105.782 142.638 105.68 142.596C105.579 142.554 105.488 142.491 105.411 142.413C105.334 142.335 105.274 142.242 105.233 142.14C105.193 142.038 105.173 141.929 105.175 141.819C105.173 141.71 105.193 141.602 105.233 141.501C105.274 141.4 105.335 141.308 105.412 141.231C105.489 141.154 105.581 141.093 105.682 141.053C105.783 141.012 105.891 140.992 106 140.995H179.032C179.142 140.993 179.251 141.012 179.353 141.053C179.455 141.093 179.548 141.153 179.626 141.23C179.705 141.307 179.767 141.398 179.809 141.5C179.852 141.601 179.874 141.709 179.874 141.819C179.874 142.042 179.785 142.256 179.627 142.414C179.469 142.572 179.255 142.66 179.032 142.66Z" fill="#5E73DD"/>
<path d="M103.114 154.868H73.9082C73.6879 154.864 73.4782 154.773 73.324 154.616C73.1698 154.459 73.0835 154.247 73.0836 154.027C73.0836 153.808 73.1704 153.599 73.3251 153.444C73.4797 153.29 73.6895 153.203 73.9082 153.203H103.114C103.224 153.201 103.333 153.22 103.435 153.261C103.537 153.301 103.63 153.361 103.708 153.438C103.787 153.515 103.849 153.606 103.892 153.708C103.934 153.809 103.956 153.917 103.956 154.027C103.956 154.25 103.867 154.464 103.709 154.622C103.551 154.78 103.337 154.868 103.114 154.868V154.868Z" fill="white"/>
<path d="M194.133 154.868H107.306C107.083 154.868 106.869 154.78 106.711 154.622C106.553 154.464 106.464 154.25 106.464 154.027C106.464 153.917 106.486 153.809 106.528 153.708C106.571 153.606 106.633 153.515 106.712 153.438C106.79 153.361 106.883 153.301 106.985 153.261C107.087 153.22 107.196 153.201 107.306 153.203H194.133C194.243 153.201 194.352 153.22 194.454 153.261C194.556 153.301 194.649 153.361 194.728 153.438C194.806 153.515 194.868 153.606 194.911 153.708C194.953 153.809 194.975 153.917 194.975 154.027C194.975 154.25 194.886 154.464 194.729 154.622C194.571 154.78 194.357 154.868 194.133 154.868V154.868Z" fill="#5E73DD"/>
<path d="M95.3657 167.076H66.1598C65.932 167.076 65.7135 166.986 65.5524 166.825C65.3913 166.664 65.3008 166.446 65.3008 166.218C65.3008 165.99 65.3913 165.772 65.5524 165.611C65.7135 165.45 65.932 165.359 66.1598 165.359H95.3657C95.5935 165.359 95.812 165.45 95.9731 165.611C96.1342 165.772 96.2247 165.99 96.2247 166.218C96.2247 166.446 96.1342 166.664 95.9731 166.825C95.812 166.986 95.5935 167.076 95.3657 167.076Z" fill="white"/>
<path d="M148.418 167.076H101.327C101.099 167.076 100.881 166.986 100.72 166.825C100.559 166.664 100.468 166.446 100.468 166.218C100.468 165.99 100.559 165.772 100.72 165.611C100.881 165.45 101.099 165.359 101.327 165.359H148.418C148.645 165.359 148.864 165.45 149.025 165.611C149.186 165.772 149.277 165.99 149.277 166.218C149.277 166.446 149.186 166.664 149.025 166.825C148.864 166.986 148.645 167.076 148.418 167.076V167.076Z" fill="#5E73DD"/>
<path d="M213.495 167.076H166.439C166.211 167.076 165.993 166.986 165.832 166.825C165.671 166.664 165.58 166.446 165.58 166.218C165.58 165.99 165.671 165.772 165.832 165.611C165.993 165.45 166.211 165.359 166.439 165.359H213.529C213.757 165.359 213.976 165.45 214.137 165.611C214.298 165.772 214.388 165.99 214.388 166.218C214.388 166.446 214.298 166.664 214.137 166.825C213.976 166.986 213.757 167.076 213.529 167.076H213.495Z" fill="#5E73DD"/>
<path d="M95.3657 179.284H66.1598C65.932 179.284 65.7135 179.194 65.5524 179.033C65.3913 178.872 65.3008 178.654 65.3008 178.426C65.3008 178.198 65.3913 177.98 65.5524 177.819C65.7135 177.658 65.932 177.567 66.1598 177.567H95.3657C95.5935 177.567 95.812 177.658 95.9731 177.819C96.1342 177.98 96.2247 178.198 96.2247 178.426C96.2247 178.654 96.1342 178.872 95.9731 179.033C95.812 179.194 95.5935 179.284 95.3657 179.284Z" fill="white"/>
<path d="M148.417 179.284H107.306C107.078 179.284 106.86 179.194 106.698 179.033C106.537 178.872 106.447 178.654 106.447 178.426C106.447 178.198 106.537 177.98 106.698 177.819C106.86 177.658 107.078 177.567 107.306 177.567H148.417C148.645 177.567 148.864 177.658 149.025 177.819C149.186 177.98 149.276 178.198 149.276 178.426C149.276 178.654 149.186 178.872 149.025 179.033C148.864 179.194 148.645 179.284 148.417 179.284V179.284Z" fill="#5E73DD"/>
<path d="M172.16 179.284H155.358C155.13 179.284 154.912 179.194 154.751 179.033C154.59 178.872 154.499 178.654 154.499 178.426C154.499 178.198 154.59 177.98 154.751 177.819C154.912 177.658 155.13 177.567 155.358 177.567H172.16C172.388 177.567 172.607 177.658 172.768 177.819C172.929 177.98 173.019 178.198 173.019 178.426C173.019 178.654 172.929 178.872 172.768 179.033C172.607 179.194 172.388 179.284 172.16 179.284Z" fill="#5E73DD"/>
<path d="M95.3658 191.492H66.1599C66.0501 191.495 65.9411 191.475 65.839 191.435C65.737 191.394 65.644 191.334 65.5656 191.257C65.4872 191.18 65.4249 191.089 65.3824 190.988C65.3399 190.887 65.318 190.778 65.3181 190.668C65.3181 190.445 65.4067 190.231 65.5646 190.073C65.7225 189.916 65.9366 189.827 66.1599 189.827H95.3658C95.4755 189.827 95.5842 189.849 95.6854 189.891C95.7865 189.934 95.8782 189.996 95.955 190.074C96.0318 190.153 96.0922 190.246 96.1326 190.348C96.173 190.45 96.1927 190.559 96.1904 190.668C96.1927 190.777 96.173 190.885 96.1324 190.986C96.0918 191.087 96.0311 191.179 95.9541 191.256C95.877 191.333 95.7852 191.394 95.6841 191.434C95.583 191.475 95.4747 191.495 95.3658 191.492V191.492Z" fill="white"/>
<path d="M163.175 191.492H103.045C102.827 191.492 102.617 191.406 102.462 191.251C102.308 191.096 102.221 190.887 102.221 190.668C102.221 190.448 102.307 190.237 102.461 190.079C102.615 189.922 102.825 189.831 103.045 189.827H163.175C163.398 189.827 163.613 189.916 163.77 190.073C163.928 190.231 164.017 190.445 164.017 190.668C164.017 190.778 163.995 190.887 163.953 190.988C163.91 191.089 163.848 191.18 163.769 191.257C163.691 191.334 163.598 191.394 163.496 191.435C163.394 191.475 163.285 191.495 163.175 191.492V191.492Z" fill="#5E73DD"/>
<path d="M199.494 191.492H170.288C170.178 191.495 170.069 191.475 169.967 191.435C169.865 191.394 169.772 191.334 169.693 191.257C169.615 191.18 169.553 191.089 169.51 190.988C169.468 190.887 169.446 190.778 169.446 190.668C169.446 190.445 169.535 190.231 169.692 190.073C169.85 189.916 170.064 189.827 170.288 189.827H199.494C199.714 189.831 199.924 189.922 200.078 190.079C200.232 190.237 200.318 190.448 200.318 190.668C200.318 190.887 200.231 191.096 200.077 191.251C199.922 191.406 199.712 191.492 199.494 191.492V191.492Z" fill="#5E73DD"/>
<path d="M74.7671 203.701H59.3052C59.0773 203.701 58.8589 203.61 58.6978 203.449C58.5367 203.288 58.4462 203.07 58.4462 202.842C58.4462 202.614 58.5367 202.396 58.6978 202.235C58.8589 202.074 59.0773 201.984 59.3052 201.984H74.7671C74.9949 201.984 75.2134 202.074 75.3745 202.235C75.5356 202.396 75.6261 202.614 75.6261 202.842C75.6261 203.07 75.5356 203.288 75.3745 203.449C75.2134 203.61 74.9949 203.701 74.7671 203.701Z" fill="white"/>
<path d="M155.358 203.701H87.6006C87.3728 203.701 87.1543 203.61 86.9932 203.449C86.8321 203.288 86.7416 203.07 86.7416 202.842C86.7416 202.614 86.8321 202.396 86.9932 202.235C87.1543 202.074 87.3728 201.984 87.6006 201.984H155.358C155.586 201.984 155.805 202.074 155.966 202.235C156.127 202.396 156.217 202.614 156.217 202.842C156.217 203.07 156.127 203.288 155.966 203.449C155.805 203.61 155.586 203.701 155.358 203.701Z" fill="#5E73DD"/>
<path d="M88.4939 215.926H59.288C59.0601 215.926 58.8416 215.836 58.6805 215.675C58.5195 215.514 58.429 215.295 58.429 215.068C58.429 214.84 58.5195 214.621 58.6805 214.46C58.8416 214.299 59.0601 214.209 59.288 214.209H88.4939C88.7217 214.209 88.9402 214.299 89.1013 214.46C89.2624 214.621 89.3529 214.84 89.3529 215.068C89.3529 215.295 89.2624 215.514 89.1013 215.675C88.9402 215.836 88.7217 215.926 88.4939 215.926Z" fill="white"/>
<path d="M121.926 228.134H63.5143C63.4046 228.134 63.2959 228.112 63.1947 228.07C63.0936 228.027 63.0019 227.965 62.9251 227.887C62.8483 227.808 62.7879 227.715 62.7475 227.613C62.707 227.511 62.6874 227.402 62.6897 227.293C62.6874 227.184 62.7071 227.076 62.7477 226.974C62.7883 226.873 62.849 226.782 62.926 226.705C63.0031 226.628 63.0949 226.567 63.196 226.526C63.2971 226.486 63.4054 226.466 63.5143 226.468H121.926C122.036 226.466 122.145 226.486 122.247 226.526C122.349 226.567 122.442 226.627 122.52 226.704C122.599 226.78 122.661 226.872 122.704 226.973C122.746 227.074 122.768 227.183 122.768 227.293C122.768 227.516 122.679 227.73 122.521 227.888C122.363 228.045 122.149 228.134 121.926 228.134Z" fill="white"/>
<path d="M172.16 228.134H131.598C131.489 228.134 131.38 228.112 131.279 228.07C131.177 228.027 131.086 227.965 131.009 227.887C130.932 227.808 130.872 227.715 130.831 227.613C130.791 227.511 130.771 227.402 130.774 227.293C130.771 227.184 130.791 227.076 130.832 226.974C130.872 226.873 130.933 226.782 131.01 226.705C131.087 226.628 131.179 226.567 131.28 226.526C131.381 226.486 131.489 226.466 131.598 226.468H172.16C172.27 226.466 172.379 226.486 172.481 226.526C172.583 226.567 172.676 226.627 172.754 226.704C172.833 226.78 172.895 226.872 172.938 226.973C172.98 227.074 173.002 227.183 173.002 227.293C173.002 227.516 172.913 227.73 172.755 227.888C172.597 228.045 172.383 228.134 172.16 228.134Z" fill="#5E73DD"/>
<path d="M228.184 228.134H177.967C177.857 228.134 177.749 228.112 177.647 228.07C177.546 228.027 177.455 227.965 177.378 227.887C177.301 227.808 177.241 227.715 177.2 227.613C177.16 227.511 177.14 227.402 177.142 227.293C177.14 227.184 177.16 227.076 177.2 226.974C177.241 226.873 177.302 226.782 177.379 226.705C177.456 226.628 177.548 226.567 177.649 226.526C177.75 226.486 177.858 226.466 177.967 226.468H228.184C228.403 226.468 228.612 226.555 228.767 226.71C228.922 226.864 229.009 227.074 229.009 227.293C229.009 227.513 228.922 227.724 228.768 227.882C228.614 228.039 228.404 228.129 228.184 228.134Z" fill="#5E73DD"/>
<path d="M151.166 240.342H66.1254C65.9022 240.342 65.6881 240.254 65.5302 240.096C65.3723 239.938 65.2836 239.724 65.2836 239.501C65.2836 239.391 65.3055 239.283 65.348 239.181C65.3905 239.08 65.4528 238.989 65.5312 238.912C65.6096 238.835 65.7026 238.775 65.8046 238.734C65.9066 238.694 66.0157 238.674 66.1254 238.677H151.166C151.276 238.674 151.385 238.694 151.487 238.734C151.589 238.775 151.682 238.835 151.76 238.912C151.839 238.989 151.901 239.08 151.944 239.181C151.986 239.283 152.008 239.391 152.008 239.501C152.008 239.724 151.919 239.938 151.761 240.096C151.604 240.254 151.389 240.342 151.166 240.342Z" fill="white"/>
<path d="M195.233 240.342H156.973C156.75 240.342 156.536 240.254 156.378 240.096C156.22 239.938 156.131 239.724 156.131 239.501C156.131 239.391 156.153 239.283 156.196 239.181C156.238 239.08 156.301 238.989 156.379 238.912C156.457 238.835 156.55 238.775 156.652 238.734C156.754 238.694 156.863 238.674 156.973 238.677H195.233C195.342 238.674 195.45 238.694 195.551 238.735C195.652 238.775 195.744 238.836 195.821 238.913C195.898 238.99 195.959 239.082 196 239.183C196.04 239.284 196.06 239.392 196.058 239.501C196.06 239.611 196.04 239.72 196 239.822C195.959 239.924 195.899 240.016 195.822 240.095C195.745 240.173 195.654 240.235 195.552 240.278C195.451 240.32 195.343 240.342 195.233 240.342V240.342Z" fill="#5E73DD"/>
<path d="M315.475 240.342H201.71C201.489 240.338 201.28 240.247 201.125 240.09C200.971 239.933 200.885 239.721 200.885 239.501C200.885 239.282 200.972 239.073 201.127 238.918C201.281 238.764 201.491 238.677 201.71 238.677H315.475C315.585 238.674 315.694 238.694 315.796 238.734C315.898 238.775 315.991 238.835 316.069 238.912C316.148 238.989 316.21 239.08 316.253 239.181C316.295 239.283 316.317 239.391 316.317 239.501C316.317 239.724 316.228 239.938 316.07 240.096C315.913 240.254 315.698 240.342 315.475 240.342Z" fill="#5E73DD"/>
<path d="M106 252.55H65.782C65.5542 252.55 65.3357 252.46 65.1746 252.299C65.0135 252.138 64.923 251.919 64.923 251.692C64.923 251.464 65.0135 251.246 65.1746 251.085C65.3357 250.924 65.5542 250.833 65.782 250.833H106C106.228 250.833 106.447 250.924 106.608 251.085C106.769 251.246 106.859 251.464 106.859 251.692C106.859 251.919 106.769 252.138 106.608 252.299C106.447 252.46 106.228 252.55 106 252.55Z" fill="white"/>
<path d="M143.624 252.55H114.006C113.778 252.55 113.56 252.46 113.399 252.299C113.238 252.138 113.147 251.919 113.147 251.692C113.147 251.464 113.238 251.246 113.399 251.085C113.56 250.924 113.778 250.833 114.006 250.833H143.624C143.852 250.833 144.071 250.924 144.232 251.085C144.393 251.246 144.483 251.464 144.483 251.692C144.483 251.919 144.393 252.138 144.232 252.299C144.071 252.46 143.852 252.55 143.624 252.55Z" fill="#5E73DD"/>
<path d="M181.214 252.55H151.596C151.368 252.55 151.149 252.46 150.988 252.299C150.827 252.138 150.737 251.919 150.737 251.692C150.737 251.464 150.827 251.246 150.988 251.085C151.149 250.924 151.368 250.833 151.596 250.833H181.214C181.442 250.833 181.66 250.924 181.821 251.085C181.982 251.246 182.073 251.464 182.073 251.692C182.073 251.919 181.982 252.138 181.821 252.299C181.66 252.46 181.442 252.55 181.214 252.55Z" fill="#5E73DD"/>
<path d="M136.89 264.758H65.782C65.6723 264.761 65.5632 264.741 65.4611 264.701C65.3591 264.66 65.2662 264.6 65.1878 264.523C65.1094 264.446 65.0471 264.355 65.0046 264.254C64.9621 264.152 64.9402 264.044 64.9402 263.934C64.9402 263.711 65.0289 263.497 65.1867 263.339C65.3446 263.181 65.5587 263.093 65.782 263.093H136.89C137.113 263.093 137.327 263.181 137.485 263.339C137.643 263.497 137.732 263.711 137.732 263.934C137.732 264.044 137.71 264.152 137.667 264.254C137.625 264.355 137.562 264.446 137.484 264.523C137.406 264.6 137.313 264.66 137.211 264.701C137.109 264.741 136.999 264.761 136.89 264.758V264.758Z" fill="white"/>
<path d="M181.214 264.758H145.651C145.542 264.761 145.434 264.741 145.333 264.7C145.232 264.66 145.14 264.599 145.063 264.522C144.986 264.445 144.925 264.353 144.885 264.252C144.844 264.151 144.824 264.043 144.827 263.934C144.824 263.824 144.844 263.715 144.885 263.613C144.925 263.511 144.985 263.419 145.062 263.34C145.139 263.262 145.231 263.2 145.332 263.157C145.433 263.115 145.542 263.093 145.651 263.093H181.214C181.324 263.093 181.432 263.115 181.533 263.157C181.635 263.2 181.726 263.262 181.803 263.34C181.88 263.419 181.94 263.511 181.981 263.613C182.021 263.715 182.041 263.824 182.039 263.934C182.041 264.043 182.021 264.151 181.981 264.252C181.94 264.353 181.879 264.445 181.802 264.522C181.725 264.599 181.633 264.66 181.532 264.7C181.431 264.741 181.323 264.761 181.214 264.758V264.758Z" fill="#5E73DD"/>
<path d="M244.093 264.758H189.942C189.833 264.761 189.724 264.741 189.623 264.7C189.522 264.66 189.43 264.599 189.353 264.522C189.276 264.445 189.216 264.353 189.175 264.252C189.134 264.151 189.115 264.043 189.117 263.934C189.115 263.824 189.134 263.715 189.175 263.613C189.215 263.511 189.275 263.419 189.352 263.34C189.429 263.262 189.521 263.2 189.622 263.157C189.723 263.115 189.832 263.093 189.942 263.093H244.093C244.203 263.093 244.313 263.115 244.415 263.157C244.517 263.199 244.61 263.261 244.688 263.339C244.766 263.417 244.828 263.51 244.87 263.612C244.913 263.714 244.934 263.824 244.934 263.934C244.935 264.044 244.913 264.152 244.87 264.254C244.828 264.355 244.765 264.446 244.687 264.523C244.609 264.6 244.516 264.66 244.414 264.701C244.311 264.741 244.202 264.761 244.093 264.758V264.758Z" fill="#5E73DD"/>
<path d="M303.879 264.758H249.796C249.687 264.761 249.578 264.741 249.476 264.701C249.374 264.66 249.281 264.6 249.202 264.523C249.124 264.446 249.061 264.355 249.019 264.254C248.976 264.152 248.955 264.044 248.955 263.934C248.955 263.711 249.043 263.497 249.201 263.339C249.359 263.181 249.573 263.093 249.796 263.093H303.879C304.102 263.093 304.316 263.181 304.474 263.339C304.632 263.497 304.721 263.711 304.721 263.934C304.721 264.044 304.699 264.152 304.656 264.254C304.614 264.355 304.552 264.446 304.473 264.523C304.395 264.6 304.302 264.66 304.2 264.701C304.098 264.741 303.989 264.761 303.879 264.758V264.758Z" fill="#5E73DD"/>
<path d="M126.187 276.966H83.7695C83.6598 276.969 83.5507 276.949 83.4487 276.909C83.3467 276.868 83.2537 276.808 83.1753 276.731C83.0969 276.654 83.0346 276.563 82.9921 276.462C82.9496 276.361 82.9277 276.252 82.9277 276.142C82.9277 276.032 82.9495 275.922 82.9918 275.82C83.0341 275.718 83.0961 275.625 83.1743 275.547C83.2525 275.469 83.3453 275.407 83.4474 275.365C83.5495 275.323 83.659 275.301 83.7695 275.301H126.187C126.297 275.301 126.405 275.323 126.506 275.365C126.608 275.408 126.699 275.47 126.776 275.548C126.853 275.627 126.913 275.72 126.954 275.822C126.994 275.924 127.014 276.033 127.011 276.142C127.014 276.251 126.994 276.359 126.953 276.46C126.913 276.561 126.852 276.653 126.775 276.73C126.698 276.807 126.606 276.868 126.505 276.908C126.404 276.949 126.296 276.969 126.187 276.966V276.966Z" fill="white"/>
<path d="M176.558 276.966H134.141C134.032 276.969 133.924 276.949 133.822 276.908C133.721 276.868 133.63 276.807 133.552 276.73C133.475 276.653 133.415 276.561 133.374 276.46C133.334 276.359 133.314 276.251 133.316 276.142C133.314 276.033 133.334 275.924 133.374 275.822C133.414 275.72 133.475 275.627 133.552 275.548C133.628 275.47 133.72 275.408 133.821 275.365C133.922 275.323 134.031 275.301 134.141 275.301H176.558C176.669 275.301 176.778 275.323 176.88 275.365C176.982 275.407 177.075 275.469 177.153 275.547C177.231 275.625 177.293 275.718 177.336 275.82C177.378 275.922 177.4 276.032 177.4 276.142C177.4 276.252 177.378 276.361 177.335 276.462C177.293 276.563 177.231 276.654 177.152 276.731C177.074 276.808 176.981 276.868 176.879 276.909C176.777 276.949 176.668 276.969 176.558 276.966Z" fill="#5E73DD"/>
<path d="M227.291 276.966H184.873C184.764 276.969 184.655 276.949 184.553 276.909C184.451 276.868 184.358 276.808 184.279 276.731C184.201 276.654 184.138 276.563 184.096 276.462C184.053 276.361 184.032 276.252 184.032 276.142C184.032 276.032 184.053 275.922 184.096 275.82C184.138 275.718 184.2 275.625 184.278 275.547C184.356 275.469 184.449 275.407 184.551 275.365C184.653 275.323 184.763 275.301 184.873 275.301H227.291C227.4 275.301 227.509 275.323 227.61 275.365C227.712 275.408 227.803 275.47 227.88 275.548C227.957 275.627 228.017 275.72 228.058 275.822C228.098 275.924 228.118 276.033 228.115 276.142C228.118 276.251 228.098 276.359 228.057 276.46C228.017 276.561 227.956 276.653 227.879 276.73C227.802 276.807 227.71 276.868 227.609 276.908C227.508 276.949 227.4 276.969 227.291 276.966V276.966Z" fill="#5E73DD"/>
<path d="M279.827 278.34H237.392C237.164 278.34 236.946 278.25 236.785 278.089C236.624 277.928 236.533 277.709 236.533 277.482C236.533 277.254 236.624 277.035 236.785 276.874C236.946 276.713 237.164 276.623 237.392 276.623H279.827C280.054 276.623 280.273 276.713 280.434 276.874C280.595 277.035 280.686 277.254 280.686 277.482C280.686 277.709 280.595 277.928 280.434 278.089C280.273 278.25 280.054 278.34 279.827 278.34Z" fill="#5E73DD"/>
<path d="M119.315 289.175H90.1088C89.9998 289.177 89.8916 289.157 89.7904 289.117C89.6893 289.076 89.5975 289.015 89.5204 288.938C89.4434 288.861 89.3827 288.77 89.3421 288.669C89.3015 288.568 89.2818 288.459 89.2841 288.35C89.2818 288.241 89.3015 288.132 89.3419 288.03C89.3823 287.928 89.4427 287.835 89.5195 287.756C89.5963 287.678 89.688 287.616 89.7892 287.573C89.8904 287.531 89.999 287.509 90.1088 287.509H119.315C119.538 287.509 119.752 287.598 119.91 287.755C120.068 287.913 120.156 288.127 120.156 288.35C120.156 288.46 120.135 288.569 120.092 288.67C120.05 288.771 119.987 288.863 119.909 288.939C119.83 289.016 119.738 289.076 119.636 289.117C119.533 289.157 119.424 289.177 119.315 289.175V289.175Z" fill="white"/>
<path d="M155.427 289.175H126.221C126.111 289.177 126.002 289.157 125.9 289.117C125.798 289.076 125.705 289.016 125.627 288.939C125.548 288.863 125.486 288.771 125.443 288.67C125.401 288.569 125.379 288.46 125.379 288.35C125.379 288.127 125.468 287.913 125.626 287.755C125.783 287.598 125.998 287.509 126.221 287.509H155.427C155.536 287.509 155.645 287.531 155.746 287.573C155.848 287.616 155.939 287.678 156.016 287.756C156.093 287.835 156.153 287.928 156.194 288.03C156.234 288.132 156.254 288.241 156.251 288.35C156.254 288.459 156.234 288.568 156.193 288.669C156.153 288.77 156.092 288.861 156.015 288.938C155.938 289.015 155.846 289.076 155.745 289.117C155.644 289.157 155.536 289.177 155.427 289.175V289.175Z" fill="#5E73DD"/>
<path d="M222.944 290.411L162.574 289.175C162.464 289.175 162.355 289.153 162.254 289.11C162.153 289.068 162.061 289.006 161.984 288.927C161.908 288.849 161.847 288.756 161.807 288.654C161.766 288.552 161.747 288.443 161.749 288.333C161.746 288.221 161.767 288.11 161.81 288.007C161.852 287.903 161.916 287.81 161.997 287.732C162.078 287.655 162.174 287.595 162.279 287.557C162.384 287.518 162.496 287.502 162.608 287.509L222.978 288.745C223.206 288.745 223.425 288.836 223.586 288.997C223.747 289.158 223.837 289.376 223.837 289.604C223.837 289.832 223.747 290.05 223.586 290.211C223.425 290.372 223.206 290.462 222.978 290.462L222.944 290.411Z" fill="#5E73DD"/>
<path d="M245.467 154.868H205.953C205.843 154.868 205.735 154.847 205.634 154.804C205.532 154.762 205.441 154.699 205.364 154.621C205.287 154.543 205.227 154.45 205.186 154.348C205.146 154.246 205.126 154.137 205.129 154.027C205.126 153.918 205.146 153.81 205.187 153.709C205.227 153.608 205.288 153.516 205.365 153.439C205.442 153.362 205.534 153.301 205.635 153.261C205.736 153.22 205.844 153.2 205.953 153.203H245.467C245.577 153.201 245.686 153.22 245.788 153.261C245.89 153.301 245.983 153.361 246.061 153.438C246.14 153.515 246.202 153.606 246.245 153.708C246.287 153.809 246.309 153.917 246.309 154.027C246.309 154.25 246.22 154.464 246.062 154.622C245.904 154.78 245.69 154.868 245.467 154.868V154.868Z" fill="#5E73DD"/>
<path d="M274.673 154.989C266.942 154.989 261.204 154.989 260.929 154.817C260.824 154.787 260.726 154.738 260.64 154.671C260.555 154.603 260.483 154.52 260.429 154.425C260.322 154.234 260.294 154.007 260.353 153.795C260.413 153.583 260.554 153.404 260.745 153.296C260.937 153.188 261.164 153.161 261.376 153.22C262.887 153.409 288.967 153.306 306.215 153.22C306.325 153.218 306.434 153.237 306.536 153.278C306.638 153.318 306.731 153.378 306.809 153.455C306.888 153.532 306.95 153.624 306.993 153.725C307.035 153.826 307.057 153.934 307.057 154.044C307.057 154.267 306.968 154.481 306.81 154.639C306.653 154.797 306.438 154.885 306.215 154.885C297.007 154.92 284.294 154.989 274.673 154.989Z" fill="#5E73DD"/>
<path d="M239.162 130.452H181.781C181.553 130.452 181.334 130.362 181.173 130.201C181.012 130.04 180.922 129.821 180.922 129.594C180.922 129.366 181.012 129.148 181.173 128.987C181.334 128.826 181.553 128.735 181.781 128.735H239.162C239.39 128.735 239.608 128.826 239.769 128.987C239.93 129.148 240.021 129.366 240.021 129.594C240.021 129.821 239.93 130.04 239.769 130.201C239.608 130.362 239.39 130.452 239.162 130.452Z" fill="#5E73DD"/>
<path d="M307.796 130.452H250.621C250.393 130.452 250.175 130.362 250.013 130.201C249.852 130.04 249.762 129.821 249.762 129.594C249.762 129.366 249.852 129.148 250.013 128.987C250.175 128.826 250.393 128.735 250.621 128.735H307.727C307.955 128.735 308.173 128.826 308.334 128.987C308.495 129.148 308.586 129.366 308.586 129.594C308.586 129.821 308.495 130.04 308.334 130.201C308.173 130.362 307.955 130.452 307.727 130.452H307.796Z" fill="#5E73DD"/>
<path d="M185.337 118.296C174.737 118.296 166.662 118.296 166.336 118.296C166.118 118.258 165.924 118.136 165.795 117.956C165.667 117.776 165.614 117.552 165.649 117.334C165.683 117.121 165.799 116.93 165.972 116.801C166.146 116.673 166.363 116.618 166.577 116.647C168.037 116.75 210.403 116.647 232.633 116.647C232.857 116.647 233.071 116.736 233.229 116.894C233.387 117.051 233.475 117.265 233.475 117.489C233.475 117.598 233.453 117.707 233.411 117.808C233.368 117.909 233.306 118.001 233.228 118.077C233.149 118.154 233.056 118.215 232.954 118.255C232.852 118.295 232.743 118.315 232.633 118.313C223.305 118.261 201.383 118.296 185.337 118.296Z" fill="#5E73DD"/>
<path d="M248.113 118.278C247.959 118.275 247.81 118.228 247.682 118.143C247.554 118.058 247.453 117.938 247.391 117.798C247.307 117.585 247.307 117.348 247.39 117.135C247.472 116.922 247.632 116.748 247.838 116.647C248.508 116.321 261.857 116.287 287.489 116.647C287.708 116.656 287.915 116.748 288.069 116.904C288.222 117.061 288.31 117.27 288.314 117.489C288.314 117.598 288.292 117.707 288.249 117.808C288.207 117.909 288.145 118.001 288.066 118.078C287.988 118.154 287.895 118.215 287.793 118.255C287.691 118.295 287.582 118.315 287.472 118.313V118.313C272.543 118.158 249.848 118.021 248.439 118.313C248.329 118.333 248.216 118.321 248.113 118.278Z" fill="white"/>
<path d="M192.759 203.701H163.175C162.947 203.701 162.729 203.61 162.568 203.449C162.407 203.288 162.316 203.07 162.316 202.842C162.316 202.614 162.407 202.396 162.568 202.235C162.729 202.074 162.947 201.984 163.175 201.984H192.759C192.987 201.984 193.205 202.074 193.366 202.235C193.527 202.396 193.618 202.614 193.618 202.842C193.618 203.07 193.527 203.288 193.366 203.449C193.205 203.61 192.987 203.701 192.759 203.701Z" fill="#5E73DD"/>
<path d="M124.881 215.926H103.114C102.886 215.926 102.668 215.836 102.507 215.675C102.346 215.514 102.255 215.295 102.255 215.068C102.255 214.84 102.346 214.621 102.507 214.46C102.668 214.299 102.886 214.209 103.114 214.209H124.881C125.109 214.209 125.327 214.299 125.489 214.46C125.65 214.621 125.74 214.84 125.74 215.068C125.74 215.295 125.65 215.514 125.489 215.675C125.327 215.836 125.109 215.926 124.881 215.926Z" fill="#5E73DD"/>
<path d="M184.873 215.926H133.145C132.917 215.926 132.698 215.836 132.537 215.675C132.376 215.514 132.286 215.295 132.286 215.068C132.286 214.84 132.376 214.621 132.537 214.46C132.698 214.299 132.917 214.209 133.145 214.209H184.873C185.101 214.209 185.32 214.299 185.481 214.46C185.642 214.621 185.732 214.84 185.732 215.068C185.732 215.295 185.642 215.514 185.481 215.675C185.32 215.836 185.101 215.926 184.873 215.926V215.926Z" fill="white"/>
<path d="M295.444 215.926H195.233C195.005 215.926 194.787 215.836 194.626 215.675C194.465 215.514 194.374 215.295 194.374 215.068C194.374 214.84 194.465 214.621 194.626 214.46C194.787 214.299 195.005 214.209 195.233 214.209H295.444C295.671 214.209 295.89 214.299 296.051 214.46C296.212 214.621 296.303 214.84 296.303 215.068C296.303 215.295 296.212 215.514 296.051 215.675C295.89 215.836 295.671 215.926 295.444 215.926V215.926Z" fill="#5E73DD"/>
<path d="M27.2818 89.9989C28.8948 89.9989 30.2024 88.6921 30.2024 87.08C30.2024 85.4679 28.8948 84.161 27.2818 84.161C25.6688 84.161 24.3612 85.4679 24.3612 87.08C24.3612 88.6921 25.6688 89.9989 27.2818 89.9989Z" fill="#231F20"/>
<path d="M37.521 89.9989C39.134 89.9989 40.4416 88.6921 40.4416 87.08C40.4416 85.4679 39.134 84.161 37.521 84.161C35.908 84.161 34.6004 85.4679 34.6004 87.08C34.6004 88.6921 35.908 89.9989 37.521 89.9989Z" fill="white"/>
<path d="M47.7602 89.9989C49.3732 89.9989 50.6808 88.6921 50.6808 87.08C50.6808 85.4679 49.3732 84.161 47.7602 84.161C46.1472 84.161 44.8396 85.4679 44.8396 87.08C44.8396 88.6921 46.1472 89.9989 47.7602 89.9989Z" fill="white"/>
<path d="M239.024 361.049H129.743L142.095 323.412H226.672L239.024 361.049Z" fill="#EAE8E5"/>
<path d="M239.025 361.908H129.743C129.606 361.913 129.471 361.884 129.348 361.825C129.225 361.765 129.118 361.677 129.037 361.567C128.956 361.457 128.902 361.329 128.882 361.194C128.861 361.059 128.874 360.921 128.918 360.792L141.271 323.155C141.326 322.979 141.436 322.827 141.584 322.718C141.733 322.61 141.912 322.552 142.095 322.554H226.672C226.856 322.552 227.035 322.61 227.184 322.718C227.332 322.827 227.442 322.979 227.497 323.155L239.849 360.792C239.894 360.921 239.907 361.059 239.886 361.194C239.865 361.329 239.812 361.457 239.731 361.567C239.65 361.677 239.543 361.765 239.42 361.825C239.297 361.884 239.161 361.913 239.025 361.908V361.908ZM130.928 360.191H237.839L226.054 324.271H142.714L130.928 360.191Z" fill="#231F20"/>
<path d="M248.044 361.049H120.723C117.791 361.049 115.415 363.421 115.415 366.346C115.415 369.272 117.791 371.644 120.723 371.644H248.044C250.976 371.644 253.352 369.272 253.352 366.346C253.352 363.421 250.976 361.049 248.044 361.049Z" fill="white"/>
<path d="M248.061 372.519H120.723C119.088 372.519 117.519 371.87 116.362 370.714C115.206 369.558 114.556 367.99 114.556 366.355C114.556 364.72 115.206 363.152 116.362 361.996C117.519 360.84 119.088 360.191 120.723 360.191H248.061C249.697 360.191 251.266 360.84 252.422 361.996C253.579 363.152 254.229 364.72 254.229 366.355C254.229 367.99 253.579 369.558 252.422 370.714C251.266 371.87 249.697 372.519 248.061 372.519V372.519ZM120.723 361.908C119.543 361.908 118.412 362.376 117.577 363.21C116.743 364.044 116.274 365.176 116.274 366.355C116.274 367.535 116.743 368.666 117.577 369.5C118.412 370.334 119.543 370.802 120.723 370.802H248.061C249.241 370.802 250.373 370.334 251.207 369.5C252.042 368.666 252.511 367.535 252.511 366.355C252.511 365.176 252.042 364.044 251.207 363.21C250.373 362.376 249.241 361.908 248.061 361.908H120.723Z" fill="#231F20"/>
<path d="M133.024 351.073C134.742 350.146 229.404 332.873 229.404 332.873L226.294 323.412H141.717L133.024 351.073Z" fill="#231F20"/>
<path d="M133.007 351.932C132.81 351.93 132.621 351.857 132.474 351.726C132.35 351.618 132.26 351.476 132.217 351.316C132.174 351.157 132.18 350.989 132.234 350.833L140.927 323.172C140.976 323.001 141.08 322.851 141.223 322.746C141.366 322.64 141.54 322.585 141.717 322.588H226.294C226.469 322.584 226.641 322.637 226.784 322.739C226.927 322.841 227.032 322.987 227.084 323.155L230.194 332.598C230.227 332.712 230.236 332.832 230.221 332.949C230.206 333.067 230.166 333.18 230.105 333.282C230.043 333.384 229.962 333.472 229.865 333.54C229.768 333.609 229.657 333.656 229.541 333.68C203.599 338.419 135.721 350.936 133.333 351.846C133.231 351.894 133.12 351.924 133.007 351.932V351.932ZM142.387 324.253L134.313 349.923C145.686 347.347 211.932 335.225 228.356 332.22L225.744 324.253H142.387Z" fill="#231F20"/>
</svg>
